<svg id="visual" viewBox="0 0 900 200" width="900" height="200" xmlns="http://www.w3.org/2000/svg" xmlns:xlink="http://www.w3.org/1999/xlink" version="1.1"><path d="M0 114L15 115.8C30 117.7 60 121.3 90 122.2C120 123 150 121 180 119.2C210 117.3 240 115.7 270 117.7C300 119.7 330 125.3 360 125.2C390 125 420 119 450 118C480 117 510 121 540 123.7C570 126.3 600 127.7 630 130C660 132.3 690 135.7 720 136.8C750 138 780 137 810 134.7C840 132.3 870 128.7 885 126.8L900 125L900 201L885 201C870 201 840 201 810 201C780 201 750 201 720 201C690 201 660 201 630 201C600 201 570 201 540 201C510 201 480 201 450 201C420 201 390 201 360 201C330 201 300 201 270 201C240 201 210 201 180 201C150 201 120 201 90 201C60 201 30 201 15 201L0 201Z" fill="#cb9a97"></path><path d="M0 138L15 140C30 142 60 146 90 143.3C120 140.7 150 131.3 180 131.3C210 131.3 240 140.7 270 141.7C300 142.7 330 135.3 360 131.8C390 128.3 420 128.7 450 131.2C480 133.7 510 138.3 540 138.7C570 139 600 135 630 132.7C660 130.3 690 129.7 720 128C750 126.3 780 123.7 810 125.7C840 127.7 870 134.3 885 137.7L900 141L900 201L885 201C870 201 840 201 810 201C780 201 750 201 720 201C690 201 660 201 630 201C600 201 570 201 540 201C510 201 480 201 450 201C420 201 390 201 360 201C330 201 300 201 270 201C240 201 210 201 180 201C150 201 120 201 90 201C60 201 30 201 15 201L0 201Z" fill="#c99693"></path><path d="M0 147L15 146.7C30 146.3 60 145.7 90 145.8C120 146 150 147 180 147.2C210 147.3 240 146.7 270 148.7C300 150.7 330 155.3 360 157.3C390 159.3 420 158.7 450 158.5C480 158.3 510 158.7 540 158.5C570 158.3 600 157.7 630 157C660 156.3 690 155.7 720 153C750 150.3 780 145.7 810 143.2C840 140.7 870 140.3 885 140.2L900 140L900 201L885 201C870 201 840 201 810 201C780 201 750 201 720 201C690 201 660 201 630 201C600 201 570 201 540 201C510 201 480 201 450 201C420 201 390 201 360 201C330 201 300 201 270 201C240 201 210 201 180 201C150 201 120 201 90 201C60 201 30 201 15 201L0 201Z" fill="#c69290"></path><path d="M0 156L15 156C30 156 60 156 90 158.8C120 161.7 150 167.3 180 170C210 172.7 240 172.3 270 171.2C300 170 330 168 360 168C390 168 420 170 450 167.5C480 165 510 158 540 154.7C570 151.3 600 151.7 630 153.7C660 155.7 690 159.3 720 161.8C750 164.3 780 165.7 810 165.7C840 165.7 870 164.3 885 163.7L900 163L900 201L885 201C870 201 840 201 810 201C780 201 750 201 720 201C690 201 660 201 630 201C600 201 570 201 540 201C510 201 480 201 450 201C420 201 390 201 360 201C330 201 300 201 270 201C240 201 210 201 180 201C150 201 120 201 90 201C60 201 30 201 15 201L0 201Z" fill="#c48e8c"></path><path d="M0 172L15 173.7C30 175.3 60 178.7 90 180.2C120 181.7 150 181.3 180 178C210 174.7 240 168.3 270 165.7C300 163 330 164 360 166.3C390 168.7 420 172.3 450 174.3C480 176.3 510 176.7 540 176.8C570 177 600 177 630 175.7C660 174.3 690 171.7 720 172.2C750 172.7 780 176.3 810 177.2C840 178 870 176 885 175L900 174L900 201L885 201C870 201 840 201 810 201C780 201 750 201 720 201C690 201 660 201 630 201C600 201 570 201 540 201C510 201 480 201 450 201C420 201 390 201 360 201C330 201 300 201 270 201C240 201 210 201 180 201C150 201 120 201 90 201C60 201 30 201 15 201L0 201Z" fill="#c18b89"></path><path d="M0 192L15 191.2C30 190.3 60 188.7 90 186C120 183.3 150 179.7 180 178.2C210 176.7 240 177.3 270 179C300 180.7 330 183.3 360 184.8C390 186.3 420 186.7 450 186C480 185.3 510 183.7 540 182.8C570 182 600 182 630 183.5C660 185 690 188 720 187.2C750 186.3 780 181.7 810 181.5C840 181.3 870 185.7 885 187.8L900 190L900 201L885 201C870 201 840 201 810 201C780 201 750 201 720 201C690 201 660 201 630 201C600 201 570 201 540 201C510 201 480 201 450 201C420 201 390 201 360 201C330 201 300 201 270 201C240 201 210 201 180 201C150 201 120 201 90 201C60 201 30 201 15 201L0 201Z" fill="#be8786"></path></svg>