<svg xmlns="http://www.w3.org/2000/svg" xmlns:xlink="http://www.w3.org/1999/xlink" version="1.1" width="1000" height="1000" viewBox="0 0 1000 1000" xml:space="preserve">
<desc>Created with Fabric.js 3.5.0</desc>
<defs>
</defs>
<rect x="0" y="0" width="100%" height="100%" fill="#ffffff"/>
<g transform="matrix(0.7765 0 0 0.7765 310.6 694.8524)" id="410005">
<g style="" vector-effect="non-scaling-stroke">
		<g transform="matrix(33.3333 0 0 33.3333 0 0.0001)">
<path style="stroke: none; stroke-width: 1; stroke-dasharray: none; stroke-linecap: butt; stroke-dashoffset: 0; stroke-linejoin: miter; stroke-miterlimit: 4; is-custom-font: none; font-file-url: none; fill: rgb(28,39,76); fill-rule: nonzero; opacity: 1;" transform=" translate(-12, -12)" d="M 10.5766 8.70419 C 11.2099 7.56806 11.5266 7 12 7 C 12.4734 7 12.7901 7.56806 13.4234 8.70419 L 13.5873 8.99812 C 13.7672 9.32097 13.8572 9.48239 13.9975 9.5889 C 14.1378 9.69541 14.3126 9.73495 14.6621 9.81402 L 14.9802 9.88601 C 16.2101 10.1643 16.825 10.3034 16.9713 10.7739 C 17.1176 11.2443 16.6984 11.7345 15.86 12.715 L 15.643 12.9686 C 15.4048 13.2472 15.2857 13.3865 15.2321 13.5589 C 15.1785 13.7312 15.1965 13.9171 15.2325 14.2888 L 15.2653 14.6272 C 15.3921 15.9353 15.4554 16.5894 15.0724 16.8801 C 14.6894 17.1709 14.1137 16.9058 12.9622 16.3756 L 12.6643 16.2384 C 12.337 16.0878 12.1734 16.0124 12 16.0124 C 11.8266 16.0124 11.663 16.0878 11.3357 16.2384 L 11.0378 16.3756 C 9.88634 16.9058 9.31059 17.1709 8.92757 16.8801 C 8.54456 16.5894 8.60794 15.9353 8.7347 14.6272 L 8.76749 14.2888 C 8.80351 13.9171 8.82152 13.7312 8.76793 13.5589 C 8.71434 13.3865 8.59521 13.2472 8.35696 12.9686 L 8.14005 12.715 C 7.30162 11.7345 6.88241 11.2443 7.02871 10.7739 C 7.17501 10.3034 7.78993 10.1643 9.01977 9.88601 L 9.33794 9.81402 C 9.68743 9.73495 9.86217 9.69541 10.0025 9.5889 C 10.1428 9.48239 10.2328 9.32097 10.4127 8.99812 L 10.5766 8.70419 Z" stroke-linecap="round"/>
</g>
		<g transform="matrix(33.3333 0 0 33.3333 -0.0004 -0.0004)">
<path style="stroke: none; stroke-width: 1; stroke-dasharray: none; stroke-linecap: butt; stroke-dashoffset: 0; stroke-linejoin: miter; stroke-miterlimit: 4; is-custom-font: none; font-file-url: none; fill: rgb(28,39,76); fill-rule: evenodd; opacity: 1;" transform=" translate(-12, -12)" d="M 12 1.25 C 12.4142 1.25 12.75 1.58579 12.75 2 V 4 C 12.75 4.41421 12.4142 4.75 12 4.75 C 11.5858 4.75 11.25 4.41421 11.25 4 V 2 C 11.25 1.58579 11.5858 1.25 12 1.25 Z M 18.5304 5.46955 C 18.8233 5.76245 18.8233 6.23732 18.5304 6.53021 L 18.1872 6.87348 C 17.8943 7.16637 17.4194 7.16637 17.1265 6.87348 C 16.8336 6.58058 16.8336 6.10571 17.1265 5.81282 L 17.4698 5.46955 C 17.7627 5.17666 18.2376 5.17666 18.5304 5.46955 Z M 5.46967 5.46967 C 5.76256 5.17678 6.23744 5.17678 6.53033 5.46967 L 6.87359 5.81293 C 7.16648 6.10582 7.16648 6.5807 6.87359 6.87359 C 6.5807 7.16648 6.10582 7.16648 5.81293 6.87359 L 5.46967 6.53033 C 5.17678 6.23744 5.17678 5.76256 5.46967 5.46967 Z M 1.25 12 C 1.25 11.5858 1.58579 11.25 2 11.25 H 4 C 4.41421 11.25 4.75 11.5858 4.75 12 C 4.75 12.4142 4.41421 12.75 4 12.75 H 2 C 1.58579 12.75 1.25 12.4142 1.25 12 Z M 19.25 12 C 19.25 11.5858 19.5858 11.25 20 11.25 H 22 C 22.4142 11.25 22.75 11.5858 22.75 12 C 22.75 12.4142 22.4142 12.75 22 12.75 H 20 C 19.5858 12.75 19.25 12.4142 19.25 12 Z M 6.87348 17.1265 C 7.16637 17.4194 7.16637 17.8943 6.87348 18.1872 L 6.53043 18.5302 C 6.23754 18.8231 5.76266 18.8231 5.46977 18.5302 C 5.17688 18.2373 5.17688 17.7625 5.46977 17.4696 L 5.81282 17.1265 C 6.10571 16.8336 6.58058 16.8336 6.87348 17.1265 Z M 17.1265 17.1267 C 17.4194 16.8339 17.8943 16.8339 18.1872 17.1267 L 18.5302 17.4698 C 18.8231 17.7627 18.8231 18.2376 18.5302 18.5305 C 18.2373 18.8233 17.7624 18.8233 17.4695 18.5305 L 17.1265 18.1874 C 16.8336 17.8945 16.8336 17.4196 17.1265 17.1267 Z M 12 19.25 C 12.4142 19.25 12.75 19.5858 12.75 20 V 22 C 12.75 22.4142 12.4142 22.75 12 22.75 C 11.5858 22.75 11.25 22.4142 11.25 22 V 20 C 11.25 19.5858 11.5858 19.25 12 19.25 Z" stroke-linecap="round"/>
</g>
</g>
</g>
<g transform="matrix(0.4178 0 0 0.4178 736.3277 167.12)" id="875599">
<g style="" vector-effect="non-scaling-stroke">
		<g transform="matrix(33.3333 0 0 33.3333 0 0.0001)">
<path style="stroke: none; stroke-width: 1; stroke-dasharray: none; stroke-linecap: butt; stroke-dashoffset: 0; stroke-linejoin: miter; stroke-miterlimit: 4; is-custom-font: none; font-file-url: none; fill: rgb(28,39,76); fill-rule: nonzero; opacity: 1;" transform=" translate(-12, -12)" d="M 10.5766 8.70419 C 11.2099 7.56806 11.5266 7 12 7 C 12.4734 7 12.7901 7.56806 13.4234 8.70419 L 13.5873 8.99812 C 13.7672 9.32097 13.8572 9.48239 13.9975 9.5889 C 14.1378 9.69541 14.3126 9.73495 14.6621 9.81402 L 14.9802 9.88601 C 16.2101 10.1643 16.825 10.3034 16.9713 10.7739 C 17.1176 11.2443 16.6984 11.7345 15.86 12.715 L 15.643 12.9686 C 15.4048 13.2472 15.2857 13.3865 15.2321 13.5589 C 15.1785 13.7312 15.1965 13.9171 15.2325 14.2888 L 15.2653 14.6272 C 15.3921 15.9353 15.4554 16.5894 15.0724 16.8801 C 14.6894 17.1709 14.1137 16.9058 12.9622 16.3756 L 12.6643 16.2384 C 12.337 16.0878 12.1734 16.0124 12 16.0124 C 11.8266 16.0124 11.663 16.0878 11.3357 16.2384 L 11.0378 16.3756 C 9.88634 16.9058 9.31059 17.1709 8.92757 16.8801 C 8.54456 16.5894 8.60794 15.9353 8.7347 14.6272 L 8.76749 14.2888 C 8.80351 13.9171 8.82152 13.7312 8.76793 13.5589 C 8.71434 13.3865 8.59521 13.2472 8.35696 12.9686 L 8.14005 12.715 C 7.30162 11.7345 6.88241 11.2443 7.02871 10.7739 C 7.17501 10.3034 7.78993 10.1643 9.01977 9.88601 L 9.33794 9.81402 C 9.68743 9.73495 9.86217 9.69541 10.0025 9.5889 C 10.1428 9.48239 10.2328 9.32097 10.4127 8.99812 L 10.5766 8.70419 Z" stroke-linecap="round"/>
</g>
		<g transform="matrix(33.3333 0 0 33.3333 -0.0004 -0.0004)">
<path style="stroke: none; stroke-width: 1; stroke-dasharray: none; stroke-linecap: butt; stroke-dashoffset: 0; stroke-linejoin: miter; stroke-miterlimit: 4; is-custom-font: none; font-file-url: none; fill: rgb(28,39,76); fill-rule: evenodd; opacity: 1;" transform=" translate(-12, -12)" d="M 12 1.25 C 12.4142 1.25 12.75 1.58579 12.75 2 V 4 C 12.75 4.41421 12.4142 4.75 12 4.75 C 11.5858 4.75 11.25 4.41421 11.25 4 V 2 C 11.25 1.58579 11.5858 1.25 12 1.25 Z M 18.5304 5.46955 C 18.8233 5.76245 18.8233 6.23732 18.5304 6.53021 L 18.1872 6.87348 C 17.8943 7.16637 17.4194 7.16637 17.1265 6.87348 C 16.8336 6.58058 16.8336 6.10571 17.1265 5.81282 L 17.4698 5.46955 C 17.7627 5.17666 18.2376 5.17666 18.5304 5.46955 Z M 5.46967 5.46967 C 5.76256 5.17678 6.23744 5.17678 6.53033 5.46967 L 6.87359 5.81293 C 7.16648 6.10582 7.16648 6.5807 6.87359 6.87359 C 6.5807 7.16648 6.10582 7.16648 5.81293 6.87359 L 5.46967 6.53033 C 5.17678 6.23744 5.17678 5.76256 5.46967 5.46967 Z M 1.25 12 C 1.25 11.5858 1.58579 11.25 2 11.25 H 4 C 4.41421 11.25 4.75 11.5858 4.75 12 C 4.75 12.4142 4.41421 12.75 4 12.75 H 2 C 1.58579 12.75 1.25 12.4142 1.25 12 Z M 19.25 12 C 19.25 11.5858 19.5858 11.25 20 11.25 H 22 C 22.4142 11.25 22.75 11.5858 22.75 12 C 22.75 12.4142 22.4142 12.75 22 12.75 H 20 C 19.5858 12.75 19.25 12.4142 19.25 12 Z M 6.87348 17.1265 C 7.16637 17.4194 7.16637 17.8943 6.87348 18.1872 L 6.53043 18.5302 C 6.23754 18.8231 5.76266 18.8231 5.46977 18.5302 C 5.17688 18.2373 5.17688 17.7625 5.46977 17.4696 L 5.81282 17.1265 C 6.10571 16.8336 6.58058 16.8336 6.87348 17.1265 Z M 17.1265 17.1267 C 17.4194 16.8339 17.8943 16.8339 18.1872 17.1267 L 18.5302 17.4698 C 18.8231 17.7627 18.8231 18.2376 18.5302 18.5305 C 18.2373 18.8233 17.7624 18.8233 17.4695 18.5305 L 17.1265 18.1874 C 16.8336 17.8945 16.8336 17.4196 17.1265 17.1267 Z M 12 19.25 C 12.4142 19.25 12.75 19.5858 12.75 20 V 22 C 12.75 22.4142 12.4142 22.75 12 22.75 C 11.5858 22.75 11.25 22.4142 11.25 22 V 20 C 11.25 19.5858 11.5858 19.25 12 19.25 Z" stroke-linecap="round"/>
</g>
</g>
</g>
</svg>